<svg xmlns="http://www.w3.org/2000/svg" viewBox="0 0 64 64" id="wedding-invitation"><path d="M62.58 21.18 56 16.51V1H8v15.51l-6.58 4.67c-.26.19-.42.5-.42.82v37c0 2.21 1.79 4 4 4h54c2.21 0 4-1.79 4-4V22c0-.32-.16-.63-.42-.82ZM44 4h4c.55 0 1 .45 1 1 0 1.65 1.35 3 3 3 .55 0 1 .45 1 1v10c0 .55-.45 1-1 1s-1-.45-1-1V9.9A5.01 5.01 0 0 1 47.1 6H44c-.55 0-1-.45-1-1s.45-1 1-1Zm1 23H19c-.55 0-1-.45-1-1s.45-1 1-1h26c.55 0 1 .45 1 1s-.45 1-1 1Zm1 3c0 .55-.45 1-1 1H19c-.55 0-1-.45-1-1s.45-1 1-1h26c.55 0 1 .45 1 1Zm-1-7H19c-.55 0-1-.45-1-1s.45-1 1-1h26c.55 0 1 .45 1 1s-.45 1-1 1ZM29 6c1.09 0 2.12.3 3 .81.88-.51 1.91-.81 3-.81 3.31 0 6 2.69 6 6s-2.69 6-6 6c-1.09 0-2.12-.3-3-.81-.88.51-1.91.81-3 .81-3.31 0-6-2.69-6-6s2.69-6 6-6ZM11 9c0-.55.45-1 1-1 1.65 0 3-1.35 3-3 0-.55.45-1 1-1h4c.55 0 1 .45 1 1s-.45 1-1 1h-3.1A5.01 5.01 0 0 1 13 9.9V19c0 .55-.45 1-1 1s-1-.45-1-1V9ZM5.13 61l18.44-13.08c2.69 3.77 7.92 4.99 8.21 5.06.07.01.15.02.22.02s.15-.01.22-.02c.29-.07 5.52-1.29 8.21-5.06L58.87 61H5.13ZM24 43c0-2.21 1.79-4 4-4 1.12 0 2.39.46 3.39 1.22.36.28.86.28 1.22 0 1-.76 2.27-1.22 3.39-1.22 2.21 0 4 1.79 4 4 0 5.54-6.7 7.62-8 7.97-1.3-.35-8-2.43-8-7.97Zm37-17.52L41 39.69A6.01 6.01 0 0 0 36 37c-1.32 0-2.77.45-4 1.21-1.23-.76-2.68-1.21-4-1.21a6.01 6.01 0 0 0-5 2.69L3 25.48v-2.96l5-3.55v7.61l14.69 10.44A7.978 7.978 0 0 1 28 35c1.32 0 2.7.33 4 .94 1.3-.61 2.68-.94 4-.94 1.98 0 3.86.73 5.31 2.02L56 26.58v-7.61l5 3.55v2.96Z"></path><path d="M33 12c0-1.01-.39-1.91-1-2.62-.61.71-1 1.61-1 2.62s.39 1.91 1 2.62c.61-.71 1-1.61 1-2.62zm-4 4c.47 0 .91-.1 1.33-.24a5.98 5.98 0 0 1 0-7.52C29.91 8.1 29.47 8 29 8c-2.21 0-4 1.79-4 4s1.79 4 4 4zm6 0c2.21 0 4-1.79 4-4s-1.79-4-4-4c-.47 0-.91.1-1.33.24a5.98 5.98 0 0 1 0 7.52c.42.14.86.24 1.33.24z"></path></svg>