<svg viewBox="0 0 35 35" xmlns="http://www.w3.org/2000/svg"><path d="m26.05 11.31a4.06 4.06 0 0 0 -3.09 1 3.06 3.06 0 0 0 -.84 2.15v3.65a.58.58 0 0 0 .58.59h2.18a1.22 1.22 0 0 1 1.2 1.43v.08a1.23 1.23 0 0 1 -1.21 1h-2.19a.58.58 0 0 0 -.58.58v10.42a1.23 1.23 0 0 1 -1.25 1.23h-.3a1.23 1.23 0 0 1 -1.2-1.23v-10.49a.57.57 0 0 0 -.58-.58h-2.16a1.22 1.22 0 0 1 -1.22-1.14 1.21 1.21 0 0 1 1.22-1.22h2.21a.58.58 0 0 0 .58-.59v-4.35a5 5 0 0 1 1.79-3.84c1-.79 2.83-.87 4.3-.76a1.23 1.23 0 0 1 1.14 1.22s-.02.83-.58.85z"/><path d="m25.37 34.75h-15.74a9.39 9.39 0 0 1 -9.38-9.38v-15.74a9.39 9.39 0 0 1 9.38-9.38h15.74a9.39 9.39 0 0 1 9.38 9.38v15.74a9.39 9.39 0 0 1 -9.38 9.38zm-15.74-32a6.89 6.89 0 0 0 -6.88 6.88v15.74a6.89 6.89 0 0 0 6.88 6.88h15.74a6.89 6.89 0 0 0 6.88-6.88v-15.74a6.89 6.89 0 0 0 -6.88-6.88z"/></svg>