<?xml version="1.0" encoding="UTF-8" standalone="no"?>
<!DOCTYPE svg PUBLIC "-//W3C//DTD SVG 1.1//EN" "http://www.w3.org/Graphics/SVG/1.1/DTD/svg11.dtd">
<svg width="100%" height="100%" viewBox="0 0 35 35" version="1.1" xmlns="http://www.w3.org/2000/svg" xmlns:xlink="http://www.w3.org/1999/xlink" xml:space="preserve" xmlns:serif="http://www.serif.com/" style="fill-rule:evenodd;clip-rule:evenodd;stroke-linejoin:round;stroke-miterlimit:2;">
    <path d="M25.37,34.75L9.63,34.75C4.486,34.745 0.255,30.514 0.25,25.37L0.25,9.63C0.255,4.486 4.486,0.255 9.63,0.25L25.37,0.25C30.514,0.255 34.745,4.486 34.75,9.63L34.75,25.37C34.745,30.514 30.514,34.745 25.37,34.75ZM9.63,2.75C5.858,2.755 2.755,5.858 2.75,9.63L2.75,25.37C2.755,29.142 5.858,32.245 9.63,32.25L25.37,32.25C29.142,32.245 32.245,29.142 32.25,25.37L32.25,9.63C32.245,5.858 29.142,2.755 25.37,2.75L9.63,2.75Z" style="fill-rule:nonzero;"/>
    <g transform="matrix(1.37253,0,0,1.37253,-4.46044,-4.46044)">
        <path d="M16,9.5C12.434,9.5 9.5,12.434 9.5,16C9.5,19.566 12.434,22.5 16,22.5C19.566,22.5 22.5,19.566 22.5,16C22.495,12.436 19.564,9.505 16,9.5ZM16,20.5C13.531,20.5 11.5,18.469 11.5,16C11.5,13.531 13.531,11.5 16,11.5C18.469,11.5 20.5,13.531 20.5,16C20.495,18.467 18.467,20.495 16,20.5Z" style="fill-rule:nonzero;"/>
    </g>
    <g transform="matrix(1.37253,0,0,1.37253,-4.32344,-4.64525)">
        <circle cx="23" cy="9" r="1"/>
    </g>
</svg>
