<?xml version="1.0" encoding="UTF-8" standalone="no"?>
<!DOCTYPE svg PUBLIC "-//W3C//DTD SVG 1.1//EN" "http://www.w3.org/Graphics/SVG/1.1/DTD/svg11.dtd">
<svg width="100%" height="100%" viewBox="0 0 35 35" version="1.1" xmlns="http://www.w3.org/2000/svg" xmlns:xlink="http://www.w3.org/1999/xlink" xml:space="preserve" xmlns:serif="http://www.serif.com/" style="fill-rule:evenodd;clip-rule:evenodd;stroke-linejoin:round;stroke-miterlimit:2;">
    <path d="M25.37,34.75L9.63,34.75C4.486,34.745 0.255,30.514 0.25,25.37L0.25,9.63C0.255,4.486 4.486,0.255 9.63,0.25L25.37,0.25C30.514,0.255 34.745,4.486 34.75,9.63L34.75,25.37C34.745,30.514 30.514,34.745 25.37,34.75ZM9.63,2.75C5.858,2.755 2.755,5.858 2.75,9.63L2.75,25.37C2.755,29.142 5.858,32.245 9.63,32.25L25.37,32.25C29.142,32.245 32.245,29.142 32.25,25.37L32.25,9.63C32.245,5.858 29.142,2.755 25.37,2.75L9.63,2.75Z" style="fill-rule:nonzero;"/>
    <g transform="matrix(1.38826,0,0,1.38826,0.85737,0.840882)">
        <path d="M9.5,17.9C7.9,17.9 6.4,17.5 5,16.6C4.8,16.5 4.7,16.2 4.8,16C4.9,15.8 5.1,15.6 5.3,15.7C6.2,15.8 7.2,15.7 8,15.3C7.2,14.9 6.5,14.2 6.3,13.4C6.2,13.2 6.3,13.1 6.4,12.9C5.7,12.3 5.3,11.4 5.3,10.5C5.3,10.3 5.4,10.1 5.5,10.1C5.5,10.1 5.6,10.1 5.6,10C5.5,9.5 5.4,9 5.4,8.5C5.4,7.9 5.6,7.4 5.8,6.9C5.9,6.7 6,6.6 6.2,6.6C6.4,6.6 6.5,6.7 6.6,6.8C7.8,8.2 9.5,9.2 11.3,9.4L11.3,9.3C11.3,7.5 12.8,6.1 14.5,6.1C15.3,6.1 16.1,6.4 16.7,6.9C17.2,6.8 17.6,6.6 18,6.4C18.2,6.3 18.4,6.3 18.6,6.4C18.8,6.5 18.8,6.7 18.8,6.9C18.8,7 18.7,7.2 18.6,7.3C18.8,7.3 18.9,7.3 19.1,7.5C19.2,7.7 19.3,7.9 19.1,8.1C18.7,8.6 18.3,9.1 17.8,9.5L17.8,9.6C17.8,13.7 14.7,17.9 9.5,17.9ZM7.3,16.5C8,16.7 8.7,16.8 9.5,16.8C14.1,16.8 16.8,13.1 16.8,9.6L16.8,9.3C16.8,9.1 16.9,9 17,8.9C17,8.9 17.1,8.9 17.1,8.8C16.9,8.8 16.7,8.7 16.6,8.5C16.5,8.3 16.6,8.1 16.7,8L16.6,8C16.4,8 16.3,8 16.1,7.9C15.7,7.5 15.1,7.2 14.5,7.2C13.3,7.2 12.3,8.2 12.3,9.4C12.3,9.6 12.3,9.7 12.4,9.9C12.4,10.1 12.4,10.2 12.3,10.3C12.2,10.4 12,10.5 11.9,10.5C9.8,10.4 7.9,9.5 6.4,8.1L6.4,8.5C6.4,9.2 6.8,9.9 7.4,10.3C7.6,10.4 7.7,10.7 7.6,10.9C7.5,11.1 7.3,11.3 7.1,11.2C6.9,11.2 6.7,11.2 6.5,11.1C6.8,11.8 7.4,12.4 8.2,12.5C8.4,12.5 8.6,12.7 8.6,13C8.6,13.2 8.5,13.4 8.2,13.5C8,13.5 7.9,13.6 7.7,13.6C8.1,14.1 8.7,14.4 9.4,14.4C9.6,14.4 9.8,14.5 9.9,14.7C10,14.9 9.9,15.1 9.7,15.3C9,16 8.2,16.3 7.3,16.5Z" style="fill-rule:nonzero;stroke:black;stroke-width:0.14px;"/>
    </g>
</svg>
